<svg xmlns="http://www.w3.org/2000/svg" width="153.517" height="64.49"><path data-name="Icon simple-spacex" d="M153.21.039c-.032-.013-.058-.038-.09-.038a.373.373 0 0 0-.147.058C56.206 9.8 10.721 51.883 0 62.232l1.426 2.239h16.913C62.3 20.284 121.681 5.617 153.082.787l.038.013c.026 0 .038-.026.064-.026a.39.39 0 0 0 .333-.377.375.375 0 0 0-.307-.358ZM2.431 22.702l-1.024 1.932 20.757 15.134q6.31-3.662 12.87-6.863L21.109 22.702Zm46.132 20.1a211.644 211.644 0 0 0-10.708 8.4L56.1 64.49h18.912l.787-1.746Z" fill="#e6e6e6"/></svg>
